<?xml version="1.0" encoding="UTF-8"?>
<svg width="24px" height="24px" viewBox="0 0 24 24" version="1.1" xmlns="http://www.w3.org/2000/svg" xmlns:xlink="http://www.w3.org/1999/xlink">
    <!-- Generator: Sketch 52.4 (67378) - http://www.bohemiancoding.com/sketch -->
    <title>Cart</title>
    <desc>Created with Sketch.</desc>
    <g id="01" stroke="none" stroke-width="1" fill="none" fill-rule="evenodd">
        <g id="Desktop" transform="translate(-1287.000000, -240.000000)" fill="#19202C" fill-rule="nonzero">
            <g id="Single-Product" transform="translate(150.000000, 150.000000)">
                <g id="Top-Header" transform="translate(792.000000, 78.000000)">
                    <g id="Cart" transform="translate(345.000000, 12.000000)">
                        <path d="M23.745855,6.91317898 C23.9576702,7.18877069 24.0370144,7.51948074 23.9841471,7.90530913 L22.978025,13.9132534 C22.9427224,14.2256807 22.8058819,14.4828096 22.567633,14.6849102 C22.329341,14.8870108 22.0602024,14.9880611 21.7600877,14.9880611 L7.09188616,14.9880611 L6.80064028,16.6967297 L20.7804857,16.6967297 C21.1158597,16.6967297 21.4069326,16.8207459 21.6541801,17.0687785 C21.901341,17.316811 22.0247701,17.6245551 22.0247701,17.9920107 C22.0247701,18.3594663 21.9012978,18.6672104 21.6541801,18.9152429 C21.4069326,19.1632755 21.1158597,19.2872917 20.7804857,19.2872917 L5.31793399,19.2872917 C4.94725742,19.2872917 4.62953465,19.1311231 4.36476567,18.8189209 C4.11764795,18.5064936 4.02056599,18.1481793 4.07351979,17.7441132 L4.73544224,13.996066 L3.72932011,3.46837269 L0.869815131,2.53136088 C0.534441089,2.42112419 0.291736191,2.20979219 0.141700436,1.89749995 C-0.00833531974,1.58511765 -0.0392250341,1.25445263 0.0490312926,0.905369798 C0.154938885,0.556286967 0.362341252,0.303661234 0.671238396,0.1474926 C0.980135539,-0.00867603527 1.2934455,-0.0408284013 1.61116827,0.0510355016 L5.2649802,1.26363902 C5.49444665,1.33713014 5.68419775,1.474926 5.83423351,1.67702658 C5.98426926,1.87912717 6.0769384,2.10883196 6.11224093,2.36605088 L6.32405612,4.46054787 L22.8985943,6.38968983 C23.2692708,6.44467308 23.5516911,6.61921449 23.745855,6.91317898 Z M7.19783701,20.0038302 C7.72737497,20.0038302 8.17748224,20.1967444 8.54815881,20.5826628 C8.91883538,20.9683561 9.10417367,21.4369971 9.10417367,21.9881805 C9.10417367,22.5392289 8.91883538,23.012463 8.54815881,23.4074778 C8.17748224,23.8024926 7.72737497,24 7.19783701,24 C6.66829905,24 6.21819179,23.8024926 5.84751522,23.4074778 C5.47683865,23.0125081 5.29150036,22.5393639 5.29150036,21.9881805 C5.29150036,21.4369971 5.47683865,20.9684011 5.84751522,20.5826628 C6.21814853,20.1967444 6.66825579,20.0038302 7.19783701,20.0038302 Z M18.5034292,20.0038302 C19.0328806,20.0038302 19.4831177,20.1967444 19.8537943,20.5826628 C20.2242978,20.9683561 20.4098091,21.4369971 20.4098091,21.9881805 C20.4098091,22.5392289 20.2244276,23.012463 19.8537943,23.4074778 C19.4831177,23.8024926 19.0328806,24 18.5034292,24 C17.9738912,24 17.5236974,23.8024926 17.1531507,23.4074778 C16.7824741,23.0125081 16.597006,22.5393639 16.597006,21.9881805 C16.597006,21.4369971 16.7823876,20.9684011 17.1531507,20.5826628 C17.523784,20.1967444 17.9738912,20.0038302 18.5034292,20.0038302 Z"></path>
                    </g>
                </g>
            </g>
        </g>
    </g>
</svg>