<?xml version="1.0" encoding="UTF-8"?>
<svg width="18px" height="18px" viewBox="0 0 18 18" version="1.1" xmlns="http://www.w3.org/2000/svg" xmlns:xlink="http://www.w3.org/1999/xlink">
    <!-- Generator: Sketch 52.4 (67378) - http://www.bohemiancoding.com/sketch -->
    <title>Cart</title>
    <desc>Created with Sketch.</desc>
    <g id="01" stroke="none" stroke-width="1" fill="none" fill-rule="evenodd">
        <g id="Desktop" transform="translate(-968.000000, -807.000000)" fill="#FFFFFF" fill-rule="nonzero">
            <g id="Single-Product" transform="translate(150.000000, 150.000000)">
                <g id="Top-Header" transform="translate(792.000000, 78.000000)">
                    <g id="Cart" transform="translate(26.000000, 12.000000)">
                        <path d="M17.8093913,572.518045 C17.9682526,572.718088 18.0277608,572.95814 17.9881103,573.2382 L17.2335187,577.599165 C17.2070418,577.825946 17.1044114,578.012587 16.9257248,578.159285 C16.7470057,578.305983 16.5451518,578.379332 16.3200657,578.379332 L5.31891462,578.379332 L5.10048021,579.619598 L15.5853643,579.619598 C15.8368948,579.619598 16.0551994,579.709617 16.240635,579.889655 C16.4260058,580.069694 16.5185776,580.293075 16.5185776,580.559799 C16.5185776,580.826523 16.4259733,581.049904 16.240635,581.229942 C16.0551994,581.409981 15.8368948,581.5 15.5853643,581.5 L3.9884505,581.5 C3.71044307,581.5 3.47215098,581.386642 3.27357425,581.160025 C3.08823596,580.933245 3.01542449,580.673156 3.05513984,580.379858 L3.55158168,577.659276 L2.79699009,570.017576 L0.652361348,569.33743 C0.400830817,569.257413 0.218802143,569.104014 0.106275327,568.877332 C-0.00625148981,568.650584 -0.0294187756,568.410565 0.0367734694,568.157178 C0.116204163,567.90379 0.271755939,567.720418 0.503428797,567.60706 C0.735101654,567.493702 0.970084124,567.470364 1.20837621,567.537045 L3.94873515,568.417233 C4.12083499,568.470578 4.26314831,568.570599 4.37567513,568.717298 C4.48820195,568.863996 4.5577038,569.030731 4.5841807,569.217437 L4.74304209,570.737763 L17.1739457,572.138062 C17.4519531,572.177973 17.6637683,572.304666 17.8093913,572.518045 Z M5.5,582 C5.91666667,582 6.27083333,582.144824 6.5625,582.434541 C6.85416667,582.724088 7,583.075905 7,583.489689 C7,583.903372 6.85416667,584.258637 6.5625,584.555182 C6.27083333,584.851727 5.91666667,585 5.5,585 C5.08333333,585 4.72916667,584.851727 4.4375,584.555182 C4.14583333,584.258671 4,583.903473 4,583.489689 C4,583.075905 4.14583333,582.724122 4.4375,582.434541 C4.72913263,582.144824 5.08329929,582 5.5,582 Z M13.500017,582 C13.9166014,582 14.2708582,582.144824 14.5625149,582.434541 C14.8540355,582.724088 15,583.075905 15,583.489689 C15,583.903372 14.8541376,584.258637 14.5625149,584.555182 C14.2708582,584.851727 13.9166014,585 13.500017,585 C13.0833645,585 12.7291418,584.851727 12.4375872,584.555182 C12.1459305,584.258671 12,583.903473 12,583.489689 C12,583.075905 12.1458624,582.724122 12.4375872,582.434541 C12.7292099,582.144824 13.0833645,582 13.500017,582 Z"></path>
                    </g>
                </g>
            </g>
        </g>
    </g>
</svg>