<?xml version="1.0" encoding="UTF-8"?>
<svg width="20px" height="16px" viewBox="0 0 20 16" version="1.1" xmlns="http://www.w3.org/2000/svg" xmlns:xlink="http://www.w3.org/1999/xlink">
    <!-- Generator: Sketch 52.4 (67378) - http://www.bohemiancoding.com/sketch -->
    <title>Heart</title>
    <desc>Created with Sketch.</desc>
    <g id="01" stroke="none" stroke-width="1" fill="none" fill-rule="evenodd">
        <g id="Desktop" transform="translate(-1214.000000, -811.000000)" fill="#19202C" fill-rule="nonzero">
            <g id="Single-Product" transform="translate(150.000000, 150.000000)">
                <g id="Right-Part" transform="translate(791.000000, 176.000000)">
                    <g id="Buttons" transform="translate(2.000000, 463.000000)">
                        <g id="Button---Save-to-Wishlist" transform="translate(271.000000, 19.000000)">
                            <g id="Like" transform="translate(0.000000, 3.000000)">
                                <path d="M14.609375,0 C17.7767578,0 20,2.56024747 20,5.57037913 C20,10.2360121 14.9048047,13.7949079 10.3569922,15.9214134 C10.1329297,16.0261955 9.86707031,16.0261955 9.64300781,15.9214134 C5.09753906,13.7959746 0,10.2335943 0,5.57037913 C0,2.55491414 2.22828125,0 5.390625,0 C7.66460937,0 9.19851563,1.04888831 10,1.79214123 C10.8014844,1.04888831 12.3353906,0 14.609375,0 Z M10,14.4 C13.7780864,12.5975099 18.3333333,9.5044613 18.3333333,5.66406767 C18.3333333,3.54883099 16.8664352,1.6 14.5524691,1.6 C11.9800154,1.6 10.6615355,3.40489374 10.648534,3.42314716 C10.5057485,3.62313355 10.2626157,3.74603061 9.99830247,3.74519457 C9.73545525,3.74404502 9.49344136,3.62501463 9.35262346,3.42471472 C8.71790123,2.57126295 7.2726466,1.6 5.44753086,1.6 C3.13406636,1.6 1.66666667,3.54802979 1.66666667,5.66406767 C1.66666667,9.5068649 6.21392747,12.5937129 10,14.4 Z" id="Heart"></path>
                            </g>
                        </g>
                    </g>
                </g>
            </g>
        </g>
    </g>
</svg>