<?xml version="1.0" encoding="UTF-8"?>
<svg width="10px" height="10px" viewBox="0 0 10 10" version="1.1" xmlns="http://www.w3.org/2000/svg" xmlns:xlink="http://www.w3.org/1999/xlink">
    <!-- Generator: Sketch 52.4 (67378) - http://www.bohemiancoding.com/sketch -->
    <title>Rectangle 81 Copy</title>
    <desc>Created with Sketch.</desc>
    <g id="01" stroke="none" stroke-width="1" fill="none" fill-rule="evenodd">
        <g id="Desktop" transform="translate(-1025.000000, -713.000000)" fill="#202124">
            <g id="Single-Product" transform="translate(150.000000, 150.000000)">
                <g id="Right-Part" transform="translate(791.000000, 176.000000)">
                    <g id="Select-Parameters" transform="translate(2.000000, 348.000000)">
                        <g id="Quantity">
                            <g id="Field" transform="translate(0.000000, 23.000000)">
                                <path d="M86,20 L86,17 C86,16.4477153 86.4477153,16 87,16 C87.5522847,16 88,16.4477153 88,17 L88,20 L91,20 C91.5522847,20 92,20.4477153 92,21 C92,21.5522847 91.5522847,22 91,22 L88,22 L88,25 C88,25.5522847 87.5522847,26 87,26 C86.4477153,26 86,25.5522847 86,25 L86,22 L83,22 C82.4477153,22 82,21.5522847 82,21 C82,20.4477153 82.4477153,20 83,20 L86,20 Z" id="Rectangle-81-Copy"></path>
                            </g>
                        </g>
                    </g>
                </g>
            </g>
        </g>
    </g>
</svg>