<?xml version="1.0" encoding="UTF-8"?>
<svg width="17px" height="17px" viewBox="0 0 17 17" version="1.1" xmlns="http://www.w3.org/2000/svg" xmlns:xlink="http://www.w3.org/1999/xlink">
    <!-- Generator: Sketch 52.4 (67378) - http://www.bohemiancoding.com/sketch -->
    <title>Input - Search</title>
    <desc>Created with Sketch.</desc>
    <defs>
        <path d="M11.1744135,3.6746007 C9.10297604,1.60316321 5.74603818,1.60316321 3.6746007,3.6746007 C1.60316321,5.74603818 1.60316321,9.10297604 3.6746007,11.1744135 C5.74603818,13.245851 9.10297604,13.245851 11.1744135,11.1744135 C13.245851,9.10297604 13.245851,5.74603818 11.1744135,3.6746007 M16.6897617,16.6897617 C16.2750499,17.1034128 15.6036623,17.1034128 15.1889506,16.6897617 L11.848983,13.3487335 C8.94069753,15.5230534 4.81691415,15.3172885 2.17485026,12.674164 C-0.724950087,9.77542426 -0.724950087,5.07465061 2.17485026,2.17485026 C5.07358997,-0.724950087 9.77542426,-0.724950087 12.674164,2.17485026 C15.3172885,4.81691415 15.5230534,8.94069753 13.3487335,11.848983 L16.6897617,15.1900112 C17.1034128,15.6036623 17.1034128,16.2750499 16.6897617,16.6897617" id="path-1"></path>
    </defs>
    <g id="01" stroke="none" stroke-width="1" fill="none" fill-rule="evenodd">
        <g id="Mobile" transform="translate(-220.000000, -39.000000)">
            <g id="Top-Header" transform="translate(220.000000, 36.000000)">
                <g id="Input---Search" transform="translate(0.000000, 3.000000)">
                    <mask id="mask-2" fill="white">
                        <use xlink:href="#path-1"></use>
                    </mask>
                    <use id="Search" fill="#FFFFFF" xlink:href="#path-1"></use>
                </g>
            </g>
        </g>
    </g>
</svg>